# xmcd CD database file
#
# Track frame offsets:
#	150
#	125734
#	216428
#
# Disc length: 3873 seconds
#
# Revision: 0
# Processed by: cddbd v1.5.2PL0 Copyright (c) Steve Scherf et al.
# Submitted via: CDex 1.70beta2
#
DISCID=2d0f1f03
DTITLE=Thurston Moore - Chris Corsano - Paul Flaherty - Wally Shoup 4tet - The Roadhouse Session Vol.1
DYEAR=2007
DGENRE=Jazz
TTITLE0=Leading and Bleeding
TTITLE1=Save the Windmill Attack for Lunch
TTITLE2=Languishing in the Jazz Section
EXTD=YEAR: 2007
EXTT0=
EXTT1=
EXTT2=
PLAYORDER=
